<?xml version="1.0" encoding="utf-8"?>
<!-- Generator: Adobe Illustrator 19.0.0, SVG Export Plug-In . SVG Version: 6.00 Build 0)  -->
<svg version="1.0" id="Capa_1" xmlns="http://www.w3.org/2000/svg" xmlns:xlink="http://www.w3.org/1999/xlink" x="0px" y="0px"
	 viewBox="-223 25 512 512" style="enable-background:new -223 25 512 512;" xml:space="preserve">
<style type="text/css">
	.st0{fill:#484850;}
</style>
<g>
	<g>
		<path class="st0" d="M33,25c-141.5,0-256,114.5-256,256c0,141.5,114.5,256,256,256c141.5,0,256-114.5,256-256
			C289,139.5,174.5,25,33,25z M33,497c-119.4,0-216-96.6-216-216c0-119.4,96.6-216,216-216c119.4,0,216,96.6,216,216
			C249,400.4,152.4,497,33,497z"/>
	</g>
</g>
<g>
	<g>
		<path class="st0" d="M33,153.9c-11,0-20,9-20,20v128.8c0,11,9,20,20,20c11,0,20-9,20-20V173.9C53,162.8,44,153.9,33,153.9z"/>
	</g>
</g>
<g>
	<g>
		<circle class="st0" cx="33" cy="374.2" r="27"/>
	</g>
</g>
</svg>
