<svg xmlns="http://www.w3.org/2000/svg" xmlns:xlink="http://www.w3.org/1999/xlink" viewBox="0 0 500 586.11"><defs><style>.cls-1,.cls-14,.cls-16,.cls-18,.cls-26,.cls-27,.cls-7{fill:none;}.cls-2{isolation:isolate;}.cls-3{opacity:0.1;}.cls-4{fill:#4d7991;}.cls-5{clip-path:url(#clip-path);}.cls-6{opacity:0.05;}.cls-18,.cls-6,.cls-7{mix-blend-mode:multiply;}.cls-14,.cls-16,.cls-7{stroke:#000;}.cls-14,.cls-18,.cls-26,.cls-7{stroke-linecap:round;}.cls-18,.cls-7{stroke-linejoin:round;stroke-width:4.15px;opacity:0.5;}.cls-22,.cls-8{font-size:21.95px;font-family:YanoneKaffeesatz-Bold, YanoneKaffeesatz Bold;font-weight:700;}.cls-9{letter-spacing:0em;}.cls-10{letter-spacing:0em;}.cls-11{letter-spacing:-0.01em;}.cls-12{letter-spacing:0em;}.cls-13{letter-spacing:0em;}.cls-14,.cls-16,.cls-26,.cls-27{stroke-miterlimit:10;}.cls-14,.cls-26{stroke-width:6.66px;}.cls-15{opacity:0.2;}.cls-16,.cls-27{stroke-width:3.47px;}.cls-17{fill:#f4c4a4;}.cls-18{stroke:#f4c4a4;}.cls-19{fill:#ffae0c;}.cls-20{fill:#fff;}.cls-21{fill:#e0e0e0;}.cls-22{fill:#616161;}.cls-23{fill:#bdbdbd;}.cls-24{fill:#4ea700;}.cls-25{fill:#9a9b9c;}.cls-26{stroke:#e0e0e0;}.cls-27{stroke:#4d7991;}.cls-28{fill:#ffd7b7;}.cls-29{fill:#01233a;opacity:0.69;}</style><clipPath id="clip-path"><rect class="cls-1" x="38.33" y="61.67" width="424.67" height="438.33"/></clipPath></defs><title>fundoS</title><g class="cls-2"><g id="BACKGROUND"><g class="cls-3"><rect class="cls-4" y="17.67" width="500" height="1.33"/><rect class="cls-4" y="40.67" width="500" height="1.33"/><rect class="cls-4" y="63.67" width="500" height="1.33"/><rect class="cls-4" y="86.67" width="500" height="1.33"/><rect class="cls-4" y="109.67" width="500" height="1.33"/><rect class="cls-4" y="132.67" width="500" height="1.33"/><rect class="cls-4" y="155.67" width="500" height="1.33"/><rect class="cls-4" y="178.67" width="500" height="1.33"/><rect class="cls-4" y="201.67" width="500" height="1.33"/><rect class="cls-4" y="224.67" width="500" height="1.33"/><rect class="cls-4" y="247.67" width="500" height="1.33"/><rect class="cls-4" y="270.67" width="500" height="1.33"/><rect class="cls-4" y="293.67" width="500" height="1.33"/><rect class="cls-4" y="316.67" width="500" height="1.33"/><rect class="cls-4" y="339.67" width="500" height="1.33"/><rect class="cls-4" y="362.67" width="500" height="1.33"/><rect class="cls-4" y="385.67" width="500" height="1.33"/><rect class="cls-4" y="408.67" width="500" height="1.33"/><rect class="cls-4" y="431.67" width="500" height="1.33"/><rect class="cls-4" y="454.67" width="500" height="1.33"/><rect class="cls-4" y="477.67" width="500" height="1.33"/></g></g><g id="OBJECTS"><g class="cls-5"><g class="cls-6"><path d="M223.62,308.79l-1.34-9.22a4.55,4.55,0,0,0-5.17-3.85l-1.94-13.41a4.69,4.69,0,0,0-5.31-4l-.62.09-1.75-12a7.6,7.6,0,0,0-8.61-6.43l-38,5.51a6,6,0,0,0-2,.67l-34.49,18.46-2.5,8.2,57.26,43.24a6.52,6.52,0,0,1,4.73-3.27l27.66-4a9,9,0,0,0,7.6-10l-.39-3.15a1.55,1.55,0,0,1,1.25-1.73A4.55,4.55,0,0,0,223.62,308.79Z"/><line class="cls-7" x1="144.46" y1="296.01" x2="172.75" y2="281.91"/><rect x="163.52" y="107.47" width="188.25" height="248.84" rx="9.72"/><path d="M343.33,126.78V310.66l-31.27,35.93H181.56A9.6,9.6,0,0,1,172,337V126.78a9.59,9.59,0,0,1,9.6-9.59H333.74A9.59,9.59,0,0,1,343.33,126.78Z"/><path d="M202.33,165.81a13.13,13.13,0,1,0,13.13,13.13A13.13,13.13,0,0,0,202.33,165.81Zm0,20.84a7.72,7.72,0,1,1,7.72-7.71A7.71,7.71,0,0,1,202.33,186.65Z"/><path d="M202.33,206.49a13.13,13.13,0,1,0,13.13,13.12A13.12,13.12,0,0,0,202.33,206.49Zm0,20.84a7.72,7.72,0,1,1,7.72-7.72A7.72,7.72,0,0,1,202.33,227.33Z"/><path d="M202.33,247.4a13.13,13.13,0,1,0,13.13,13.13A13.13,13.13,0,0,0,202.33,247.4Zm0,20.84a7.72,7.72,0,1,1,7.72-7.71A7.71,7.71,0,0,1,202.33,268.24Z"/><text class="cls-8" transform="translate(202.49 150.71)"><tspan class="cls-9">R</tspan><tspan class="cls-10" x="11.9" y="0">e</tspan><tspan class="cls-11" x="22.89" y="0">g</tspan><tspan x="35.03" y="0">ist</tspan><tspan class="cls-12" x="56.12" y="0">r</tspan><tspan class="cls-13" x="63.19" y="0">a</tspan><tspan x="73.68" y="0">tion</tspan></text><rect x="234.23" y="167.25" width="90.63" height="5.17"/><rect x="234.23" y="176.35" width="90.63" height="5.17"/><rect x="234.23" y="185.46" width="90.63" height="5.17"/><rect x="234.23" y="207.92" width="90.63" height="5.17"/><rect x="234.23" y="217.02" width="90.63" height="5.17"/><rect x="234.23" y="226.13" width="90.63" height="5.17"/><rect x="234.23" y="248.84" width="90.63" height="5.17"/><rect x="234.23" y="257.94" width="90.63" height="5.17"/><rect x="234.23" y="267.05" width="90.63" height="5.17"/><polygon points="201.37 187.57 189.89 176.09 194.04 171.94 201.22 179.12 217.44 161.73 221.74 165.74 201.37 187.57"/><polygon points="201.37 226.01 189.89 214.53 194.04 210.38 201.22 217.56 217.44 200.17 221.74 204.18 201.37 226.01"/><polygon points="201.37 267.02 189.89 255.54 194.04 251.39 201.22 258.57 217.44 241.18 221.74 245.18 201.37 267.02"/><path d="M276.74,99.47a19.09,19.09,0,0,0-38.18,0c0,.14,0,.28,0,.42v7.58h38.2V99.89C276.75,99.75,276.75,99.61,276.74,99.47ZM251.1,96.11a6.55,6.55,0,1,1,13.09,0v2.6H251.1Z"/><rect x="251.1" y="98.71" width="13.09" height="0.67"/><path d="M276.74,99.47a19.09,19.09,0,0,0-38.18,0c0,.14,0,.28,0,.42v.67c0-.14,0-.29,0-.43a19.09,19.09,0,0,1,38.18,0c0,.14,0,.29,0,.43v-.67C276.75,99.75,276.75,99.61,276.74,99.47Z"/><path d="M276.75,99.89v7.58h-38.2V99.89c0-.14,0-.28,0-.42h38.18C276.75,99.61,276.75,99.75,276.75,99.89Z"/><rect x="215.22" y="100.99" width="84.85" height="25.53" rx="3.97"/><path d="M296.39,101H218.91a3.69,3.69,0,0,0-3.69,3.68v.67a3.69,3.69,0,0,1,3.69-3.68h77.48a3.68,3.68,0,0,1,3.68,3.68v-.67A3.68,3.68,0,0,0,296.39,101Z"/><path d="M296.39,122H218.91a3.69,3.69,0,0,1-3.69-3.68v4.57a3.69,3.69,0,0,0,3.69,3.68h77.48a3.68,3.68,0,0,0,3.68-3.68v-4.57A3.68,3.68,0,0,1,296.39,122Z"/><path d="M291.9,107.49H223.4a1,1,0,0,1-1-.95h0a1,1,0,0,1,1-1h68.5a1,1,0,0,1,1,1h0A1,1,0,0,1,291.9,107.49Z"/><path d="M291.9,113.3H223.4a1,1,0,0,1-1-1h0a1,1,0,0,1,1-.95h68.5a1,1,0,0,1,1,.95h0A1,1,0,0,1,291.9,113.3Z"/><path d="M291.9,119.11H223.4a1,1,0,0,1-1-1h0a1,1,0,0,1,1-1h68.5a1,1,0,0,1,1,1h0A1,1,0,0,1,291.9,119.11Z"/><rect x="222.44" y="104.78" width="70.41" height="1.91" rx="0.95"/><path d="M291.9,112.5H223.4a1,1,0,0,1-1-1h0a1,1,0,0,1,1-1h68.5a1,1,0,0,1,1,1h0A1,1,0,0,1,291.9,112.5Z"/><path d="M291.9,118.31H223.4a1,1,0,0,1-1-1h0a1,1,0,0,1,1-1h68.5a1,1,0,0,1,1,1h0A1,1,0,0,1,291.9,118.31Z"/><rect class="cls-14" x="192.2" y="296.36" width="56.55" height="25.02"/><rect class="cls-14" x="264.19" y="296.36" width="56.55" height="25.02"/><path class="cls-15" d="M343.33,310.66l-31.27,35.93h-5.31l-5-21.82a12.19,12.19,0,0,1,10.52-12.07l2-.28c2.33-.33,4.67-.58,7-.69Z"/><path d="M343.33,310.66H321.66a9.6,9.6,0,0,0-9.6,9.59v26.34Z"/><circle class="cls-16" cx="219.48" cy="309.17" r="20.61" transform="translate(-150.26 393.14) rotate(-67.42)"/><path class="cls-16" d="M229.09,298.22A14.56,14.56,0,0,0,205,308Z"/><path class="cls-16" d="M209.8,320.05a14.55,14.55,0,0,0,24.2-9.8Z"/><line class="cls-16" x1="240.83" y1="306.97" x2="203.15" y2="322.23"/><line class="cls-16" x1="198.66" y1="311.14" x2="236.34" y2="295.89"/><path d="M203.19,285.9a10.39,10.39,0,0,0-16.42-12.7L159.7,304.46a6.64,6.64,0,0,1-8.14,1.51l-13.36-7.16a28.11,28.11,0,0,1-9.39-8.12l-4.47-6.08-11.16,6a6.17,6.17,0,0,0-3.13,4.22L99.22,348.66a5.39,5.39,0,0,0,0,2l7.09,38.62-3.93,25.9,44.38-5.8c6.34-8.93,8.48-11,11.31-15.47A103.77,103.77,0,0,0,171.14,365l7.33-27.46a6.62,6.62,0,0,1,.63-1.5l2.72-19.12Z"/><path d="M88.54,421.47l68.32,12a6.92,6.92,0,0,1,5.52,8L137.8,582.57,55.94,568.31,80.73,426C81.48,422.22,84.8,420.76,88.54,421.47Z"/><path d="M151.86,432.5,155,414.89a3.3,3.3,0,0,0-2.67-3.81l-54.68-9.67a3.28,3.28,0,0,0-3.81,2.66l-3.11,17.61Z"/><rect x="119.28" y="393.65" width="4.84" height="62.1" transform="translate(-317.7 470.59) rotate(-79.97)"/></g><path class="cls-17" d="M216.62,304.79l-1.34-9.22a4.55,4.55,0,0,0-5.17-3.85l-1.94-13.41a4.69,4.69,0,0,0-5.31-4l-.62.09-1.75-12a7.6,7.6,0,0,0-8.61-6.43l-38,5.51a6,6,0,0,0-2,.67l-34.49,18.46-2.5,8.2,57.26,43.24a6.52,6.52,0,0,1,4.73-3.27l27.66-4a9,9,0,0,0,7.6-10l-.39-3.15a1.55,1.55,0,0,1,1.25-1.73A4.55,4.55,0,0,0,216.62,304.79Z"/><line class="cls-18" x1="137.46" y1="292.01" x2="165.75" y2="277.91"/><rect class="cls-19" x="156.52" y="103.47" width="188.25" height="248.84" rx="9.72"/><path class="cls-20" d="M336.33,122.78V306.66l-31.27,35.93H174.56A9.6,9.6,0,0,1,165,333V122.78a9.59,9.59,0,0,1,9.6-9.59H326.74A9.59,9.59,0,0,1,336.33,122.78Z"/><path class="cls-21" d="M195.33,161.81a13.13,13.13,0,1,0,13.13,13.13A13.13,13.13,0,0,0,195.33,161.81Zm0,20.84a7.72,7.72,0,1,1,7.72-7.71A7.71,7.71,0,0,1,195.33,182.65Z"/><path class="cls-21" d="M195.33,202.49a13.13,13.13,0,1,0,13.13,13.12A13.12,13.12,0,0,0,195.33,202.49Zm0,20.84a7.72,7.72,0,1,1,7.72-7.72A7.72,7.72,0,0,1,195.33,223.33Z"/><path class="cls-21" d="M195.33,243.4a13.13,13.13,0,1,0,13.13,13.13A13.13,13.13,0,0,0,195.33,243.4Zm0,20.84a7.72,7.72,0,1,1,7.72-7.71A7.71,7.71,0,0,1,195.33,264.24Z"/><text class="cls-22" transform="translate(195.49 146.71)"><tspan class="cls-9">R</tspan><tspan class="cls-10" x="11.9" y="0">e</tspan><tspan class="cls-11" x="22.89" y="0">g</tspan><tspan x="35.03" y="0">ist</tspan><tspan class="cls-12" x="56.12" y="0">r</tspan><tspan class="cls-13" x="63.19" y="0">a</tspan><tspan x="73.68" y="0">tion</tspan></text><rect class="cls-23" x="227.23" y="163.25" width="90.63" height="5.17"/><rect class="cls-23" x="227.23" y="172.35" width="90.63" height="5.17"/><rect class="cls-23" x="227.23" y="181.46" width="90.63" height="5.17"/><rect class="cls-23" x="227.23" y="203.92" width="90.63" height="5.17"/><rect class="cls-23" x="227.23" y="213.02" width="90.63" height="5.17"/><rect class="cls-23" x="227.23" y="222.13" width="90.63" height="5.17"/><rect class="cls-23" x="227.23" y="244.84" width="90.63" height="5.17"/><rect class="cls-23" x="227.23" y="253.94" width="90.63" height="5.17"/><rect class="cls-23" x="227.23" y="263.05" width="90.63" height="5.17"/><polygon class="cls-24" points="194.37 183.57 182.89 172.09 187.04 167.94 194.22 175.12 210.44 157.73 214.74 161.74 194.37 183.57"/><polygon class="cls-24" points="194.37 222.01 182.89 210.53 187.04 206.38 194.22 213.56 210.44 196.17 214.74 200.18 194.37 222.01"/><polygon class="cls-24" points="194.37 263.02 182.89 251.54 187.04 247.39 194.22 254.57 210.44 237.18 214.74 241.18 194.37 263.02"/><path class="cls-23" d="M269.74,95.47a19.09,19.09,0,0,0-38.18,0c0,.14,0,.28,0,.42v7.58h38.2V95.89C269.75,95.75,269.75,95.61,269.74,95.47ZM244.1,92.11a6.55,6.55,0,1,1,13.09,0v2.6H244.1Z"/><rect class="cls-23" x="244.1" y="94.71" width="13.09" height="0.67"/><path class="cls-21" d="M269.74,95.47a19.09,19.09,0,0,0-38.18,0c0,.14,0,.28,0,.42v.67c0-.14,0-.29,0-.43a19.09,19.09,0,0,1,38.18,0c0,.14,0,.29,0,.43v-.67C269.75,95.75,269.75,95.61,269.74,95.47Z"/><path class="cls-25" d="M269.75,95.89v7.58h-38.2V95.89c0-.14,0-.28,0-.42h38.18C269.75,95.61,269.75,95.75,269.75,95.89Z"/><rect class="cls-23" x="208.22" y="96.99" width="84.85" height="25.53" rx="3.97"/><path class="cls-21" d="M289.39,97H211.91a3.69,3.69,0,0,0-3.69,3.68v.67a3.69,3.69,0,0,1,3.69-3.68h77.48a3.68,3.68,0,0,1,3.68,3.68v-.67A3.68,3.68,0,0,0,289.39,97Z"/><path class="cls-25" d="M289.39,118H211.91a3.69,3.69,0,0,1-3.69-3.68v4.57a3.69,3.69,0,0,0,3.69,3.68h77.48a3.68,3.68,0,0,0,3.68-3.68v-4.57A3.68,3.68,0,0,1,289.39,118Z"/><path class="cls-21" d="M284.9,103.49H216.4a1,1,0,0,1-1-.95h0a1,1,0,0,1,1-1h68.5a1,1,0,0,1,1,1h0A1,1,0,0,1,284.9,103.49Z"/><path class="cls-21" d="M284.9,109.3H216.4a1,1,0,0,1-1-1h0a1,1,0,0,1,1-.95h68.5a1,1,0,0,1,1,.95h0A1,1,0,0,1,284.9,109.3Z"/><path class="cls-21" d="M284.9,115.11H216.4a1,1,0,0,1-1-1h0a1,1,0,0,1,1-1h68.5a1,1,0,0,1,1,1h0A1,1,0,0,1,284.9,115.11Z"/><rect class="cls-25" x="215.44" y="100.78" width="70.41" height="1.91" rx="0.95"/><path class="cls-25" d="M284.9,108.5H216.4a1,1,0,0,1-1-1h0a1,1,0,0,1,1-1h68.5a1,1,0,0,1,1,1h0A1,1,0,0,1,284.9,108.5Z"/><path class="cls-25" d="M284.9,114.31H216.4a1,1,0,0,1-1-1h0a1,1,0,0,1,1-1h68.5a1,1,0,0,1,1,1h0A1,1,0,0,1,284.9,114.31Z"/><rect class="cls-26" x="185.2" y="292.36" width="56.55" height="25.02"/><rect class="cls-26" x="257.19" y="292.36" width="56.55" height="25.02"/><path class="cls-15" d="M336.33,306.66l-31.27,35.93h-5.31l-5-21.82a12.19,12.19,0,0,1,10.52-12.07l2-.28c2.33-.33,4.67-.58,7-.69Z"/><path class="cls-21" d="M336.33,306.66H314.66a9.6,9.6,0,0,0-9.6,9.59v26.34Z"/><circle class="cls-27" cx="212.48" cy="305.17" r="20.61" transform="translate(-150.87 384.21) rotate(-67.42)"/><path class="cls-27" d="M222.09,294.22A14.56,14.56,0,0,0,198,304Z"/><path class="cls-27" d="M202.8,316.05a14.55,14.55,0,0,0,24.2-9.8Z"/><line class="cls-27" x1="233.83" y1="302.97" x2="196.15" y2="318.23"/><line class="cls-27" x1="191.66" y1="307.14" x2="229.34" y2="291.89"/><path class="cls-28" d="M196.19,281.9a10.39,10.39,0,0,0-16.42-12.7L152.7,300.46a6.64,6.64,0,0,1-8.14,1.51l-13.36-7.16a28.11,28.11,0,0,1-9.39-8.12l-4.47-6.08-11.16,6a6.17,6.17,0,0,0-3.13,4.22L92.22,344.66a5.39,5.39,0,0,0,0,2l7.09,38.62-3.93,25.9,44.38-5.8c6.34-8.93,8.48-11,11.31-15.47A103.77,103.77,0,0,0,164.14,361l7.33-27.46a6.62,6.62,0,0,1,.63-1.5l2.72-19.12Z"/><path class="cls-4" d="M81.54,417.47l68.32,12a6.92,6.92,0,0,1,5.52,8L130.8,578.57,48.94,564.31,73.73,422C74.48,418.22,77.8,416.76,81.54,417.47Z"/><path class="cls-21" d="M144.86,428.5,148,410.89a3.3,3.3,0,0,0-2.67-3.81l-54.68-9.67a3.28,3.28,0,0,0-3.81,2.66l-3.11,17.61Z"/><rect class="cls-23" x="112.28" y="389.65" width="4.84" height="62.1" transform="translate(-319.55 460.39) rotate(-79.97)"/><g class="cls-6"><path d="M355.29,310.59,367.2,323c-.21-.82,26.35,15.58,26.35,15.58L405.7,320l-7.61-18.29-46.93-22.53-8.15-.21C342.9,280.25,355.29,310.59,355.29,310.59Z"/><path d="M363.44,431.11l-2.79-19.45A3.26,3.26,0,0,1,363.4,408l54.37-7.79a3.26,3.26,0,0,1,3.68,2.76l2.78,19.45Z"/><rect x="362.65" y="420.03" width="61.42" height="6.76" transform="translate(-56.06 60.06) rotate(-8.15)"/><path d="M426.23,421.16l-67.92,9.65a6.84,6.84,0,0,0-5.72,7.73l20.75,147.57,81.38-11.44L433.79,425.85C433.18,422.14,429.94,420.58,426.23,421.16Z"/><path d="M411.9,281.8a1.75,1.75,0,0,0-1.18-1l-63.3-15.36a4.7,4.7,0,0,0-5.74,5.35l1.59,9.35a3.38,3.38,0,0,1,0,.84l7.58.2,43.64,20.95,7.08,17L394.55,330l-4.25,6.52,1.2,1.11a1.31,1.31,0,0,1-.14,2l-8.87,6.11a1.33,1.33,0,0,1-.93.22l-1.38-.2c2.84,16.59,16.25,31.21,32.15,38.39a5,5,0,0,1,.59-1.37L428.29,359l4.84-7.5a10.2,10.2,0,0,0,1.53-7L432.5,329.2Z"/><path d="M423.07,341.16l-98-86.07-10.81,12.08L412.16,354a5.16,5.16,0,0,0,7.46-.63l4.07-5.06A5.17,5.17,0,0,0,423.07,341.16Z"/><polygon points="314.29 267.17 306.43 250.77 325.1 255.09 314.29 267.17"/><polygon points="306.43 250.77 309.47 257.13 313.39 252.38 306.43 250.77"/><path d="M380.18,345.75l-6.21-.9a1.31,1.31,0,0,1-1-.73l-3.21-6.81a1.55,1.55,0,0,0-.08-.23l-2.37-9.22L361.77,308l-6.39-16.67a11.62,11.62,0,0,0-12.46-7.35l-2.84.4a11.14,11.14,0,0,0-5.47,14.55l2.83,6.44,3.69,18.38,1.07,30.7a8.77,8.77,0,0,0,.22,1.62l4.66,19.5a9.89,9.89,0,0,0,2.07,4.08l10.32,12.15a4.82,4.82,0,0,1,1.08,2.18l3,13.88,50.69-7.13-2-14.5a4.9,4.9,0,0,1,.16-2.05C396.43,377,383,362.34,380.18,345.75Z"/></g><path class="cls-17" d="M348.29,306.59,360.2,319c-.21-.82,26.35,15.58,26.35,15.58L398.7,316l-7.61-18.29-46.93-22.53-8.15-.21C335.9,276.25,348.29,306.59,348.29,306.59Z"/><path class="cls-21" d="M356.44,427.11l-2.79-19.45A3.26,3.26,0,0,1,356.4,404l54.37-7.79a3.26,3.26,0,0,1,3.68,2.76l2.78,19.45Z"/><rect class="cls-23" x="355.65" y="416.03" width="61.42" height="6.76" transform="translate(-55.57 59.02) rotate(-8.15)"/><path class="cls-4" d="M419.23,417.16l-67.92,9.65a6.84,6.84,0,0,0-5.72,7.73l20.75,147.57,81.38-11.44L426.79,421.85C426.18,418.14,422.94,416.58,419.23,417.16Z"/><path class="cls-28" d="M404.9,277.8a1.75,1.75,0,0,0-1.18-1l-63.3-15.36a4.7,4.7,0,0,0-5.74,5.35l1.59,9.35a3.38,3.38,0,0,1,0,.84l7.58.2,43.64,20.95,7.08,17L387.55,326l-4.25,6.52,1.2,1.11a1.31,1.31,0,0,1-.14,2l-8.87,6.11a1.33,1.33,0,0,1-.93.22l-1.38-.2c2.84,16.59,16.25,31.21,32.15,38.39a5,5,0,0,1,.59-1.37L421.29,355l4.84-7.5a10.2,10.2,0,0,0,1.53-7L425.5,325.2Z"/><path class="cls-4" d="M416.07,337.16l-98-86.07-10.81,12.08L405.16,350a5.16,5.16,0,0,0,7.46-.63l4.07-5.06A5.17,5.17,0,0,0,416.07,337.16Z"/><polygon class="cls-28" points="307.29 263.17 299.43 246.77 318.1 251.09 307.29 263.17"/><polygon class="cls-4" points="299.43 246.77 302.47 253.13 306.39 248.38 299.43 246.77"/><path class="cls-28" d="M373.18,341.75l-6.21-.9a1.31,1.31,0,0,1-1-.73l-3.21-6.81a1.55,1.55,0,0,0-.08-.23l-2.37-9.22L354.77,304l-6.39-16.67a11.62,11.62,0,0,0-12.46-7.35l-2.84.4a11.14,11.14,0,0,0-5.47,14.55l2.83,6.44,3.69,18.38,1.07,30.7a8.77,8.77,0,0,0,.22,1.62l4.66,19.5a9.89,9.89,0,0,0,2.07,4.08l10.32,12.15a4.82,4.82,0,0,1,1.08,2.18l3,13.88,50.69-7.13-2-14.5a4.9,4.9,0,0,1,.16-2.05C389.43,373,376,358.34,373.18,341.75Z"/></g></g><g id="DESIGNED_BY_FREEPIK" data-name="DESIGNED BY FREEPIK"><rect class="cls-29" width="500" height="500"/></g></g></svg>