<?xml version="1.0" encoding="utf-8"?>
<!-- Generator: Adobe Illustrator 19.0.0, SVG Export Plug-In . SVG Version: 6.00 Build 0)  -->
<svg version="1.1" id="Camada_1" xmlns="http://www.w3.org/2000/svg" xmlns:xlink="http://www.w3.org/1999/xlink" x="0px" y="0px"
	 viewBox="0 0 640 480" style="enable-background:new 0 0 640 480;" xml:space="preserve">
<style type="text/css">
	.st0{fill:#B2B1B1;}
	.st1{font-family:'TimesNewRomanPS-BoldMT';}
	.st2{font-size:81.3979px;}
	.st3{fill:#C9C7C7;}
	.st4{font-family:'Courgette-Regular';}
	.st5{font-size:97.7562px;}
	.st6{font-size:113.5079px;}
	.st7{fill:#B06328;}
	.st8{fill:#B0C4D8;}
	.st9{fill:#99B4CD;}
	.st10{fill:#C4D7E5;}
	.st11{fill:#A8B7C1;}
	.st12{fill:#B0C9DB;}
	.st13{fill:#E2E7F0;}
	.st14{fill:#A35425;}
	.st15{fill:#C97629;}
</style>
<g id="XMLID_64_">
</g>
<g id="XMLID_63_">
</g>
<g id="XMLID_62_">
</g>
<g id="XMLID_61_">
</g>
<g id="XMLID_60_">
</g>
<g id="XMLID_59_">
</g>
<g id="XMLID_58_">
</g>
<g id="XMLID_57_">
</g>
<g id="XMLID_56_">
</g>
<g id="XMLID_55_">
</g>
<g id="XMLID_54_">
</g>
<g id="XMLID_53_">
</g>
<g id="XMLID_52_">
</g>
<g id="XMLID_51_">
</g>
<g id="XMLID_50_">
</g>
<g id="XMLID_16_">
</g>
<g id="XMLID_15_">
</g>
<g id="XMLID_14_">
</g>
<g id="XMLID_13_">
</g>
<g id="XMLID_12_">
</g>
<g id="XMLID_11_">
</g>
<g id="XMLID_10_">
</g>
<g id="XMLID_9_">
</g>
<g id="XMLID_8_">
</g>
<g id="XMLID_7_">
</g>
<g id="XMLID_6_">
</g>
<g id="XMLID_5_">
</g>
<g id="XMLID_4_">
</g>
<g id="XMLID_3_">
</g>
<g id="XMLID_2_">
</g>
<g id="XMLID_80_">
</g>
<g id="XMLID_79_">
</g>
<g id="XMLID_78_">
</g>
<g id="XMLID_77_">
</g>
<g id="XMLID_76_">
</g>
<g id="XMLID_75_">
</g>
<g id="XMLID_74_">
</g>
<g id="XMLID_73_">
</g>
<g id="XMLID_72_">
</g>
<g id="XMLID_71_">
</g>
<g id="XMLID_70_">
</g>
<g id="XMLID_69_">
</g>
<g id="XMLID_68_">
</g>
<g id="XMLID_67_">
</g>
<g id="XMLID_66_">
</g>
<g id="XMLID_17_">
	<text id="XMLID_49_" transform="matrix(0.7121 0 0 1 104.3955 195.1748)" class="st0 st1 st2">OBRA SOCIAL</text>
	<text id="XMLID_87_" transform="matrix(0.7121 0 0 1 132.7324 350.0088)" class="st0 st1 st2">DOM BOSCO</text>
	<text id="XMLID_1_" transform="matrix(0.6754 0 0 1 181.373 280.8867)" class="st3 st4 st5">RaVe</text>
	<text id="XMLID_94_" transform="matrix(0.852 0 0 1 333.1621 283.0967)" class="st3 st4 st6">X</text>
	<path id="XMLID_93_" class="st7" d="M452.3,323.6L452.3,323.6c0.6,7.6-3.1,14.7-8.2,15.7l0,0c-2.7,0.5-5.2-0.7-7.3-3.2l-33.9-43.4
		c-1.2-1.4-1.4-3.8-0.5-5.6l6.1-11.6c0.9-1.8,2.5-2.1,3.7-0.7l36.3,39.3C450.6,316.2,452,320,452.3,323.6z"/>
	<polygon id="XMLID_92_" class="st8" points="407.7,276.8 403,285.7 394.1,275.2 398.8,266.4 	"/>
	<path id="XMLID_91_" class="st9" d="M403.9,279.5l1.5,1.8l2.3-4.5l-9-10.5l-4.7,8.9l4.5,5.3l0,0C400,277.8,402.1,277.4,403.9,279.5
		z"/>
	<path id="XMLID_88_" class="st10" d="M355.6,154c-26,4.7-44.3,41.4-40.9,82.3c3.3,40.9,27,70.2,53,65.5c26-4.7,44.3-41.4,40.9-82.3
		S381.6,149.4,355.6,154z M366.4,287.1c-20.7,3.7-39.8-19.9-42.4-52.4c-2.7-32.5,12.1-62.2,32.8-65.9c20.7-3.7,39.8,19.9,42.4,52.4
		S387.1,283.4,366.4,287.1z"/>
	<path id="XMLID_86_" class="st11" d="M343.7,232c0-19,8.2-35.5,19.9-40.1l0.3-0.1c5.2-1.9,4.6-13.8-0.5-14.4
		c-3.2-0.4-6.3,0.1-9.4,1.2c-12,5.1-20.4,22.2-20.5,41.2c-0.2,5,0.5,10.4,1.5,14.7c1.6,8.2,9.1,5.9,9-2.6
		C343.7,232.5,343.7,232,343.7,232z"/>
	<path id="XMLID_85_" class="st11" d="M327.5,239c-2.7-32.5,12.1-62.2,32.8-65.9c9.7-1.7,18.7,2.7,26.3,10.3
		c-7.9-11.1-18.5-16.7-29.8-14.7c-20.7,3.7-35.4,33.3-32.8,65.9c1.4,17.7,7.8,32.6,16.2,42.1C333.6,266.9,328.8,254.3,327.5,239z"/>
	<path id="XMLID_84_" class="st12" d="M367.6,301.9L367.6,301.9c26-4.7,44.3-41.4,40.9-82.3l0,0c-1.6,0.3-3,2.5-2.7,5.5
		c0.7,16.9-2.7,33-9,45.6c-6.2,13.1-15.7,22.3-26.5,25.7C368.5,296.7,367.4,299.4,367.6,301.9z"/>
	<path id="XMLID_83_" class="st13" d="M355.6,154L355.6,154c-26,4.7-44.3,41.4-40.9,82.3l0,0c1.6-0.3,3-2.5,2.7-5.5
		c-0.7-16.4,2.5-31.9,8.2-44c6.5-13.7,16.2-23.9,27.3-27.4C354.7,159.2,355.8,156.5,355.6,154z"/>
	<path id="XMLID_82_" class="st14" d="M448.2,313.8l-1.8-1.7c1.5,2.2,2.6,5.2,2.9,8.4l0,0c0.4,5.2-3.7,8-6.4,4.8l-31.5-36.9
		c-1.8-2.1-4.2-1.7-5.6,1l-2.3,4.5l33,41.5c1.8,2.1,4.1,3.7,6.3,3.7c3-0.1,5.8-2.2,7.4-5.4s2.4-7.7,1.7-12.1
		C451.6,318.4,450,315.9,448.2,313.8z"/>
	<path id="XMLID_81_" class="st15" d="M418.4,291.1c-0.3,0-0.8,0.1-1.1-0.2l-7.5-8.8c-0.6-0.7-0.7-1.9-0.2-2.8s1.3-1,1.9-0.3
		l7.5,8.8c0.6,0.7,0.7,1.9,0.2,2.8C419.2,291,418.7,291.1,418.4,291.1z"/>
</g>
</svg>
