<?xml version="1.0" encoding="utf-8"?>
<!-- Generator: Adobe Illustrator 19.0.0, SVG Export Plug-In . SVG Version: 6.00 Build 0)  -->
<svg version="1.1" id="Camada_1" xmlns="http://www.w3.org/2000/svg" xmlns:xlink="http://www.w3.org/1999/xlink" x="0px" y="0px"
	 viewBox="-551 17 1024 766" style="enable-background:new -551 17 1024 766;" xml:space="preserve">
<style type="text/css">
	.st0{fill:url(#SVGID_1_);}
	.st1{fill:#A09F9F;}
	.st2{font-family:'TimesNewRomanPS-BoldMT';}
	.st3{font-size:107.4631px;}
	.st4{fill:#999898;}
	.st5{font-family:'Courgette-Regular';}
	.st6{font-size:131.3295px;}
</style>
<g id="XMLID_64_">
</g>
<g id="XMLID_63_">
</g>
<g id="XMLID_62_">
</g>
<g id="XMLID_61_">
</g>
<g id="XMLID_60_">
</g>
<g id="XMLID_59_">
</g>
<g id="XMLID_58_">
</g>
<g id="XMLID_57_">
</g>
<g id="XMLID_56_">
</g>
<g id="XMLID_55_">
</g>
<g id="XMLID_54_">
</g>
<g id="XMLID_53_">
</g>
<g id="XMLID_52_">
</g>
<g id="XMLID_51_">
</g>
<g id="XMLID_50_">
</g>
<g id="XMLID_16_">
</g>
<g id="XMLID_15_">
</g>
<g id="XMLID_14_">
</g>
<g id="XMLID_13_">
</g>
<g id="XMLID_12_">
</g>
<g id="XMLID_11_">
</g>
<g id="XMLID_10_">
</g>
<g id="XMLID_9_">
</g>
<g id="XMLID_8_">
</g>
<g id="XMLID_7_">
</g>
<g id="XMLID_6_">
</g>
<g id="XMLID_5_">
</g>
<g id="XMLID_4_">
</g>
<g id="XMLID_3_">
</g>
<g id="XMLID_2_">
</g>
<g id="XMLID_80_">
</g>
<g id="XMLID_79_">
</g>
<g id="XMLID_78_">
</g>
<g id="XMLID_77_">
</g>
<g id="XMLID_76_">
</g>
<g id="XMLID_75_">
</g>
<g id="XMLID_74_">
</g>
<g id="XMLID_73_">
</g>
<g id="XMLID_72_">
</g>
<g id="XMLID_71_">
</g>
<g id="XMLID_70_">
</g>
<g id="XMLID_69_">
</g>
<g id="XMLID_68_">
</g>
<g id="XMLID_67_">
</g>
<g id="XMLID_66_">
</g>
<g>
</g>
<g>
</g>
<g>
</g>
<g>
</g>
<g>
</g>
<g>
</g>
<g>
</g>
<g>
</g>
<g>
</g>
<g>
</g>
<g>
</g>
<g>
</g>
<g>
</g>
<g>
</g>
<g>
</g>
<g>
	<g>
		<linearGradient id="SVGID_1_" gradientUnits="userSpaceOnUse" x1="-469.2358" y1="319.343" x2="-245.4809" y2="319.343">
			<stop  offset="0" style="stop-color:#FFFFFF"/>
			<stop  offset="1" style="stop-color:#000000"/>
		</linearGradient>
		<path class="st0" d="M-248,322.3c-1.4,0-2.5,1.3-2.5,2.9c0,0.8,0.3,1.5,0.7,2.1c-1.5,1.4-4.2,2.6-7,3.7
			c-5.9,2.5-12.4,5.3-13.9,11.8c-2.1,9.4-12.1,22.3-14.9,25.8c-0.2-0.1-0.3-0.3-0.5-0.4c0,0,0,0,0,0c-0.1-0.1-0.3-0.2-0.4-0.3
			c0,0,0,0,0,0c2.2-4,7.9-15.7,9.3-29.4c1.3-12.5,10.8-19.1,15.3-21.6c0.4,0.9,1.2,1.5,2.2,1.5c1.4,0,2.5-1.3,2.5-2.9
			c0-1.6-1.1-2.9-2.5-2.9c-1.4,0-2.5,1.3-2.5,2.9c0,0,0,0.1,0,0.1c-4.6,2.5-14.8,9.5-16.1,22.7c-1.4,13.4-7,25-9.1,28.9
			c-1.1-0.7-2.4-1.2-3.8-1.2c-3.9,0-7.1,3.1-8,7.3l-8.4,2.5c0,0,16.7-157.3-89.8-216c-10.9,3.1-3.4,73.7-5.2,82.5
			c-1.8,8.7-31,56.2-6.9,76c24,19.8,86.6,69.6,86.6,69.6s-16.1,3.3-33-17.9c-38-56.9-104.8-54.2-109.6,4.6
			c3.5,28.3,11.1,52.1,3,64.8c-8.1,12.7-9.8,27.9,2.1,32.5c40.7,29.8,119.6-80.5,126.9-70.1c-40.9,46.8-20.6,78.6-13.1,77.1
			c7.4-1.5,2-62.3,17.1-67.9c12.8-2.2,31.7-29.3,31.7-29.3v0c1.5,2.4,4,4,6.7,4c4.6,0,8.3-4.4,8.3-9.8c0-1-0.2-1.9-0.4-2.8
			c-0.1-0.5-0.3-1.4-0.7-1.9c-0.2-0.5-0.5-1-0.8-1.4c0,0,0,0,0,0c0.1-0.1,0.2-0.2,0.4-0.3c0,0-0.1,0-0.1-0.1
			c3-3.8,12.8-16.6,15-26.2c1.3-5.9,7.6-8.6,13.2-10.9c3.2-1.3,6-2.6,7.6-4.3c0.2,0.1,0.5,0.2,0.7,0.2c1.4,0,2.5-1.3,2.5-2.9
			C-245.5,323.6-246.6,322.3-248,322.3z"/>
	</g>
	<text transform="matrix(0.552 0 0 1 -469.2368 574.6045)" class="st1 st2 st3">obra social dom bosco</text>
	<text transform="matrix(1.0526 0 0 1 -321.3594 478.8515)" class="st4 st5 st6">ANVEGA</text>
</g>
</svg>
