<?xml version="1.0" encoding="utf-8"?>
<!-- Generator: Adobe Illustrator 19.0.0, SVG Export Plug-In . SVG Version: 6.00 Build 0)  -->
<svg version="1.1" id="Camada_1" xmlns="http://www.w3.org/2000/svg" xmlns:xlink="http://www.w3.org/1999/xlink" x="0px" y="0px"
	 viewBox="0 0 640 480" style="enable-background:new 0 0 640 480;" xml:space="preserve">
<style type="text/css">
	.st0{fill:#00599D;}
	.st1{fill:#424A60;}
	.st2{fill:#C7D8E6;}
	.st3{fill:none;stroke:#050000;stroke-miterlimit:10;}
	.st4{fill:#C7D8E6;stroke:#00599D;stroke-width:2;stroke-miterlimit:10;}
	.st5{fill:#FFFFFF;stroke:#00599D;stroke-width:2;stroke-miterlimit:10;}
	.st6{fill:none;stroke:#070062;stroke-miterlimit:10;}
	.st7{fill:none;stroke:#070062;stroke-width:2;stroke-miterlimit:10;}
	.st8{fill:#FFFFFF;}
	.st9{font-family:'TimesNewRomanPSMT';}
	.st10{font-size:22.2313px;}
</style>
<g id="XMLID_1_">
	<polyline id="XMLID_36_" class="st0" points="379.8,343.6 339.1,357.8 359.1,336.3 377.8,342.8 	"/>
	<path id="XMLID_9_" class="st1" d="M217,357.2c0,0,34.8-1,50.4,6.1c0,0-57.3-2.3-89.7,31.1v-35.1l-27-16.3c0,0,28.2-19,49.8-23.6"
		/>
	<path id="XMLID_10_" class="st1" d="M391,357.2c0,0-38,0.3-55,6.5c-0.4,0.2-0.3,0.8,0.1,0.8c11.4-0.3,63.5,0.2,91.3,29.2
		c0.2,0.3,0.7,0.1,0.7-0.3v-33.9c0-0.1,0.1-0.3,0.2-0.3l27.5-15.8c0.3-0.2,0.3-0.5,0-0.7c-4.1-2.6-30.4-19-50.2-23.3"/>
	<path id="XMLID_12_" class="st0" d="M242.5,346.8c0,0,0.5,0.5,1.3,1.3c6,5.7,31.3,28.3,60.4,36.7c0,0,21.4-1.5,61-35.9
		c2.4-2.1,0,0,0,0"/>
	<path id="XMLID_34_" class="st0" d="M363.7,345.1c0,0-45.4-23.8-119.8-0.7"/>
	<path id="XMLID_4_" class="st0" d="M208.3,303.9c-25.2-50.6-32.5-90.8-33.6-117.5c-1.4-34.4,6.2-50.1,6.2-50.1
		c61.2,3.3,87.6-17,105.4-38C298.4,83.9,304.2,71,304.2,71s4.2,6.7,10.4,16.3c7.8,12.3,21.8,28.4,45.3,38
		c16.9,6.9,38.9,10.4,67.2,6.7c0,0,6.3,17.9,6.6,48.9c0.3,29.3-7.5,74.2-32.8,123"/>
	<path id="XMLID_13_" class="st2" d="M218.3,301.6c-23.6-47.9-31.3-77.5-32.4-102.8c-1.3-32.5,3.1-51.4,3.1-51.4
		c26.6,1.4,45.6-3.5,60.4-8.8c17-6,28.4-13.1,37.3-23.8c11.3-13.5,17.6-27.3,17.6-27.3s3,7.9,8.7,17c7.3,11.6,22.1,23.1,44.1,32.2
		c15.8,6.5,35.9,11.7,62.3,8.1c0,0,4,20.1,2.5,50.5c-1.4,27.7-6.6,57.3-30.2,103.4"/>
	<g id="XMLID_14_">
		<polygon id="XMLID_8_" class="st1" points="322.9,188.5 304.5,178.9 286.3,188.8 289.6,168.1 274.8,153.5 295.2,150.3 
			304.2,131.4 313.4,150.2 333.9,153.1 319.2,167.8 		"/>
		<polygon id="XMLID_15_" class="st1" points="266.7,194.9 253.6,188.2 240.7,195.1 243.1,180.6 232.5,170.4 247,168.2 253.4,155 
			260,168.1 274.5,170.1 264.1,180.5 		"/>
		<polygon id="XMLID_16_" class="st1" points="367.6,194.9 354.5,188.2 341.6,195.1 344,180.6 333.4,170.4 347.9,168.2 354.3,155 
			360.9,168.1 375.4,170.1 365,180.5 		"/>
	</g>
	<path id="XMLID_32_" class="st3" d="M225.1,207.6"/>
	<path id="XMLID_18_" class="st4" d="M301.1,287.2c-16.3-2.2-74.1,11.9-74.1,11.9V210h71.7l7.1,7.5l9.1-7.5H385v89.1
		c0,0-44.7-13.1-79-11"/>
	<polyline id="XMLID_33_" class="st5" points="304,286 304,222.7 298,215 232,215 232,296 	"/>
	<polyline id="XMLID_19_" class="st5" points="308,286 308,222.7 315.4,215 380,215 380,296 	"/>
	<g id="XMLID_42_">
		<g id="XMLID_31_">
			<line id="XMLID_17_" class="st6" x1="239" y1="233.5" x2="296" y2="233.5"/>
			<line id="XMLID_20_" class="st6" x1="239" y1="242.5" x2="296" y2="242.5"/>
			<line id="XMLID_21_" class="st6" x1="239" y1="252.5" x2="296" y2="252.5"/>
			<line id="XMLID_22_" class="st6" x1="239" y1="261.5" x2="296" y2="261.5"/>
			<line id="XMLID_23_" class="st6" x1="239" y1="270.5" x2="296" y2="270.5"/>
			<line id="XMLID_24_" class="st7" x1="239" y1="279" x2="296" y2="279"/>
		</g>
		<g id="XMLID_41_">
			<line id="XMLID_26_" class="st6" x1="313" y1="233.5" x2="369" y2="233.5"/>
			<line id="XMLID_27_" class="st6" x1="313" y1="242.5" x2="369" y2="242.5"/>
			<line id="XMLID_28_" class="st6" x1="313" y1="252.5" x2="369" y2="252.5"/>
			<line id="XMLID_29_" class="st6" x1="313" y1="261.5" x2="369" y2="261.5"/>
			<line id="XMLID_30_" class="st6" x1="313" y1="270.5" x2="369" y2="270.5"/>
			<line id="XMLID_25_" class="st7" x1="313" y1="279" x2="369" y2="279"/>
		</g>
	</g>
	<polyline id="XMLID_11_" class="st0" points="239.9,345.8 270.8,355.6 255.6,340.8 241.4,345.3 	"/>
	<path id="XMLID_35_" class="st2" d="M256.9,340.8c0,0,41.1-20.4,96.3,2.3c0,0-27.9,29.7-47.7,30.7c0,0-25.2-5-48.6-31.4"/>
	<path id="XMLID_6_" class="st1" d="M191.3,308.4c0,0,106.6-50.8,219.6-2.2L390.7,360c0,0-86.4-51.2-176.6,0l-21.5-51.6"/>
	<g id="XMLID_5_">
		<text id="XMLID_50_" transform="matrix(2.3146 0 0 1 242.5273 322.8467)" class="st8 st9 st10">OSDB</text>
	</g>
</g>
</svg>
