<?xml version="1.0" encoding="utf-8"?>
<!-- Generator: Adobe Illustrator 19.0.0, SVG Export Plug-In . SVG Version: 6.00 Build 0)  -->
<svg version="1.1" id="Capa_1" xmlns="http://www.w3.org/2000/svg" xmlns:xlink="http://www.w3.org/1999/xlink" x="0px" y="0px"
	 viewBox="-450 252 58 58" style="enable-background:new -450 252 58 58;" xml:space="preserve">
<style type="text/css">
	.st0{fill:#424A60;}
	.st1{fill:#FBCE9D;}
	.st2{fill:#E7ECED;}
	.st3{fill:#CCD5D6;}
	.st4{fill:#38454F;}
	.st5{fill:#546A79;}
	.st6{fill:#FFFFFF;}
</style>
<circle class="st0" cx="-421" cy="281" r="29"/>
<path class="st1" d="M-397.1,297.4c-0.7-6.4-6.1-11.4-12.6-11.4h-5.9c-0.8,0-1.4-0.6-1.4-1.4V284c0-0.6,0.4-1.1,0.9-1.3
	c5.8-2.2,9.8-11.7,9-18.4c-0.8-6.4-5.9-11.5-12.3-12.2c-0.5-0.1-1-0.1-1.5-0.1c0,0,0,0,0,0c-7.7,0-14,6.3-14,14
	c0,6,3.8,14.8,9.1,16.7c0.5,0.2,0.9,0.7,0.9,1.3v0.6c0,0.8-0.6,1.4-1.4,1.4h-5.9c-6.6,0-12,5-12.6,11.4c5.2,7.6,14,12.6,23.9,12.6
	S-402.3,305-397.1,297.4z"/>
<path d="M-416.6,258.6c3.8,1,7.3,3.3,9.6,6.3c0-0.2,0-0.4,0-0.7c-0.8-6.4-6-11.5-12.5-12.2c-0.5-0.1-1-0.1-1.6-0.1c0,0,0,0,0,0
	c-7,0-12.9,5-14,11.6h0c0.2,0.3,0.4,0.5,0.6,0.8c0.1-0.1,0.1-0.2,0.2-0.3c2-2.4,5.4-2.9,8.3-1.7c0.9,0.4,1.9,0.6,2.9,0.6
	C-420.2,263-417.6,261.2-416.6,258.6z"/>
<path class="st2" d="M-397.1,297.4c-0.7-6.4-6.1-11.4-12.6-11.4h-1.3l-6,6h-8l-3-2l-3.4-4h-0.9c-6.6,0-12,5-12.6,11.4
	c5.2,7.6,14,12.6,23.9,12.6S-402.3,305-397.1,297.4z"/>
<path class="st3" d="M-407,306.4c0.7-0.4,1.4-0.8,2-1.2V299h-2V306.4z"/>
<path class="st3" d="M-435,306.4V299h-2v6.2C-436.4,305.6-435.7,306-435,306.4z"/>
<rect x="-424" y="290" class="st4" width="6" height="6"/>
<path class="st5" d="M-425,309.7c1.3,0.2,2.7,0.3,4,0.3c1.4,0,2.7-0.1,4.1-0.3L-419,296h-4L-425,309.7z"/>
<path class="st6" d="M-424,290.8l-4-4.8h-4.9c-0.1,0-0.1,0.1-0.1,0.1l3.9,9.9l5-3.3V290.8z"/>
<path class="st6" d="M-409.1,286h-4.9l-4,4.8v1.9l5,3.3l3.9-9.9C-409,286.1-409.1,286-409.1,286z"/>
</svg>
