<?xml version="1.0" encoding="utf-8"?>
<!-- Generator: Adobe Illustrator 19.0.0, SVG Export Plug-In . SVG Version: 6.00 Build 0)  -->
<svg version="1.1" id="Capa_1" xmlns="http://www.w3.org/2000/svg" xmlns:xlink="http://www.w3.org/1999/xlink" x="0px" y="0px"
	 viewBox="-450 252 58 58" style="enable-background:new -450 252 58 58;" xml:space="preserve">
<style type="text/css">
	.st0{fill:#424A60;}
	.st1{fill:#FBCE9D;}
	.st2{fill:#DBB38A;}
	.st3{fill:#E7ECED;}
	.st4{fill:#CCD5D6;}
</style>
<circle class="st0" cx="-421" cy="281.1" r="29"/>
<path class="st1" d="M-397.1,297.5c-0.7-6.4-6.1-11.4-12.6-11.4h-5.9c-0.8,0-1.4-0.6-1.4-1.4v-0.6c0-0.6,0.4-1.1,0.9-1.3
	c5.8-2.2,9.8-11.7,9-18.4c-0.8-6.4-5.9-11.5-12.3-12.2c-0.5-0.1-1-0.1-1.5-0.1l0,0c-7.7,0-14,6.3-14,14c0,6,3.8,14.8,9.1,16.7
	c0.5,0.2,0.9,0.7,0.9,1.3v0.6c0,0.8-0.6,1.4-1.4,1.4h-5.9c-6.6,0-12,5-12.6,11.4c5.2,7.6,14,12.6,23.9,12.6
	S-402.3,305.1-397.1,297.5z"/>
<path d="M-416.6,258.8c3.8,1,7.3,3.3,9.6,6.3c0-0.2,0-0.4,0-0.7c-0.8-6.4-6-11.5-12.5-12.2c-0.5-0.1-1-0.1-1.5-0.1l0,0
	c-7,0-12.9,5-14,11.6l0,0c0.2,0.3,0.4,0.5,0.5,0.8c0.1-0.1,0.1-0.2,0.2-0.3c2-2.4,5.4-2.9,8.3-1.7c0.9,0.4,1.8,0.6,2.8,0.6
	C-420.2,263.2-417.6,261.4-416.6,258.8z"/>
<g>
	<path d="M-416.1,282.8c-0.5,0.2-0.9,0.7-0.9,1.3v0.6c0,0.8,0.6,1.4,1.4,1.4h5.9c0.9,0,1.8,0.1,2.7,0.3v-20.3l0,0
		C-407,272.3-410.8,280.8-416.1,282.8z"/>
	<path d="M-432.3,286.1h5.9c0.8,0,1.4-0.6,1.4-1.4v-0.6c0-0.6-0.3-1.1-0.9-1.3c-5.3-2-9.1-10.7-9.1-16.7v20.3
		C-434.1,286.2-433.2,286.1-432.3,286.1z"/>
</g>
<path class="st2" d="M-412,292.1c-4,0-7.4,2.3-9,5.7c-1.6-3.3-5-5.7-9-5.7c-0.6,0-1,0.4-1,1s0.4,1,1,1c4.4,0,8,3.6,8,8v3h2v-3
	c0-4.4,3.6-8,8-8c0.6,0,1-0.4,1-1S-411.4,292.1-412,292.1z"/>
<path class="st3" d="M-397.1,297.5c-0.4-3.7-2.4-7-5.3-9l-18.6,16.6l-18.6-16.6c-2.9,2.1-4.9,5.3-5.3,9c5.2,7.6,14,12.6,23.9,12.6
	S-402.3,305.1-397.1,297.5z"/>
<g>
	<path class="st4" d="M-407,299.1v7.4c0.7-0.4,1.4-0.8,2-1.2v-6.2H-407z"/>
	<path class="st4" d="M-437,305.3c0.6,0.4,1.3,0.8,2,1.2v-7.4h-2V305.3z"/>
</g>
</svg>
