<?xml version="1.0" encoding="utf-8"?>
<!-- Generator: Adobe Illustrator 19.0.0, SVG Export Plug-In . SVG Version: 6.00 Build 0)  -->
<svg version="1.1" id="Layer_1" xmlns="http://www.w3.org/2000/svg" xmlns:xlink="http://www.w3.org/1999/xlink" x="0px" y="0px"
	 viewBox="-223 25 512 512" style="enable-background:new -223 25 512 512;" xml:space="preserve">
<style type="text/css">
	.st0{fill:#424A60;}
	.st1{fill:#FBCB99;}
	.st2{fill:#EDBA89;}
	.st3{fill:#000054;}
	.st4{fill:#D2D2D7;}
	.st5{fill:#E7ECED;}
	.st6{opacity:0.68;}
	.st7{opacity:0.65;}
</style>
<g>
	<ellipse class="st0" cx="8.7" cy="280.7" rx="163.3" ry="173.3"/>
	<path d="M66.4,284.7c0.3-0.4,0.5-0.7,0.8-1c9.8-14.4,15.2-31.9,15.2-50c0-45.8-33.7-83-75.1-83c-41.4,0-75.1,37.2-75.1,83
		c0,18.3,5.5,36.1,15.5,50.5c0.1,0.1,0.2,0.3,0.3,0.5c0.3,0.5,0.7,0.9,1,1.4c3.8,4.6,8.6,3.5,10,3.1c0.1,0,0.3-0.1,0.4-0.1l0,0
		c5-1.7,10.5-3.2,16.4-4.3l10.4-2l-7.9-6.7c-6.4-5.4-10.5-12.8-11.7-20.8l-0.6-4l-4.3-0.3c-7.1-0.5-12.7-6.2-12.7-12.9
		c0-6.7,5.3-12.2,12.4-12.9l4.8-0.5l0.1-3.6c4.8-1.3,26-7.7,40.9-21.4c3.5,3.8,16.7,16.5,41.1,21.5l0.1,3.5L53,225
		c7.1,0.7,12.4,6.2,12.4,12.9c0,6.7-5.6,12.4-12.7,12.9l-4.3,0.3l-0.6,4c-1.2,8-5.3,15.4-11.7,20.8l-7.9,6.7l10.4,2
		c6.2,1.2,12,2.7,17.1,4.5C57.7,289.7,62.8,290.3,66.4,284.7z"/>
	<path class="st1" d="M27.4,300.5v-18.4l-6.8,1.7c-3,0.7-6.2,1.1-9.3,1.1H3c-3.2,0-6.3-0.4-9.4-1.1l-6.8-1.7v18.4l-20.2,4.5
		l4.4,14.6l1.8,1c2.7,1.5,10.1,5.4,20.3,7.5c4.8,1,9.6,1.5,14.3,1.5h0c11.7,0,23.1-3,33.9-8.9l1.9-1l4.3-14.4L27.4,300.5z"/>
	<path class="st2" d="M-0.3,328.2c-10.1-2.1-17.5-5.9-20.3-7.5l0,0l-4.3-14.8l16.5-3.7v-17.7l-4.7-2.3v18.4l-20.2,4.5l4.4,14.6
		l1.8,1c2.7,1.5,10.1,5.4,20.3,7.5c4.8,1,9.6,1.5,14.3,1.5h0c1.1,0,2.1,0,3.2-0.1C7,329.4,3.3,328.9-0.3,328.2z"/>
	<path class="st3" d="M34,322.8c-8.6,3.6-17.6,5.5-26.7,5.5c-4.7,0-9.5-0.5-14.1-1.5c-4.4-0.9-8.7-2.2-12.8-4l-7.9-3.3l20,66.1h29.4
		l20-66.2L34,322.8z"/>
	<polygon class="st4" points="-27.5,319.6 -7.5,385.7 -1,385.7 -20.1,322.7 	"/>
	<g>
		<path class="st5" d="M75.9,315.5c-2.4-1.3-5.1-2.5-8-3.6l-1.3-0.5c-8.7-3.4-18.4-5.9-23.4-7.1l-24.4,81.4h68.8
			c7.7,0,9-5.6,9.2-8.4v-24.3C96.9,333.2,85.6,321.2,75.9,315.5z"/>
		<path class="st5" d="M-29.7,304.3c-5.1,1.2-14.7,3.7-23.4,7.1l-1.3,0.5c-2.8,1.1-5.6,2.3-8,3.6c-9.6,5.7-21,17.7-21,37.6v24.3
			c0.2,2.7,1.6,8.4,9.2,8.4h68.8L-29.7,304.3z"/>
	</g>
	<g class="st6">
		<path class="st5" d="M-74.4,377.3v-12.8v-11.4c0-19.8,11.4-31.8,21-37.6c2.4-1.3,5.1-2.5,8-3.6l1.3-0.5c5.1-2,10.5-3.6,15.1-4.9
			l-0.6-2.2c-5.1,1.2-14.7,3.7-23.4,7.1l-1.3,0.5c-2.8,1.1-5.6,2.3-8,3.6c-9.6,5.7-21,17.7-21,37.6v24.3c0.2,2.7,1.5,8.2,8.9,8.4
			V377.3z"/>
		<path class="st5" d="M67.8,385.7v-33.3c0-2.1-1.8-3.8-4.1-3.8s-4.1,1.7-4.1,3.8v33.3H67.8z"/>
		<path class="st5" d="M-46.6,385.7v-33.3c0-2.1-1.8-3.8-4.1-3.8s-4.1,1.7-4.1,3.8v33.3H-46.6z"/>
	</g>
	<path class="st1" d="M55.8,221.9c-2.2-0.6-4.5-0.3-6.4,1c-1.8,1.3-2.9,3.3-2.9,5.4v19.1c0,2.1,1.1,4.1,2.9,5.4
		c1.2,0.9,2.7,1.3,4.2,1.3c0.7,0,1.4-0.1,2.1-0.3c1.4-0.4,2.7-1,4-1.7c0.8-0.4,1.4-1,2-1.7c0.8-0.4,1.5-0.9,2.1-1.5
		c2.9-3.1,4.5-7,4.5-11.1C68.4,230.5,63.3,224.1,55.8,221.9z"/>
	<path class="st2" d="M-35.1,222.9c-1.8-1.3-4.2-1.6-6.4-1c-7.5,2.2-12.6,8.6-12.6,16c0,7.4,5,13.8,12.6,16c0.7,0.2,1.4,0.3,2.1,0.3
		c1.5,0,3-0.4,4.2-1.3c1.8-1.3,2.9-3.3,2.9-5.4v-19.1C-32.2,226.2-33.3,224.2-35.1,222.9z"/>
	<path class="st1" d="M50.8,222.2c0,0,0-0.1,0-0.4v-0.3c0-0.8-0.4-2.1-2.2-2.9l-1.9-0.4c-18.8-4.2-30-12.7-35.3-17.8c0,0,0,0,0,0
		c-4.5-3.9-9.2,0-9.2,0l0,0c-12.8,10.4-28.6,15.8-35,17.7l-0.8,0.3c0,0,0,0,0,0c-2.2,0.7-2.8,2-2.9,2.9v29.3c0,20.4,17.7,37,39.6,37
		h8.3c21.8,0,39.6-16.6,39.6-37L50.8,222.2L50.8,222.2z"/>
	<path class="st2" d="M9.9,199.3c-4-2-7.7,1-7.7,1l0,0c-12.8,10.4-28.6,15.8-35,17.7l-0.8,0.3c0,0,0,0,0,0c-2.2,0.7-2.8,2-2.9,2.9
		v29.3c0,20.4,17.7,37,39.6,37h6.5c-21.8,0-39.6-16.6-39.6-37v-27.2c0-3.3,2.6-4.8,4.1-5.4c0.3-0.1,0.7-0.2,1-0.3l0,0h0
		c7.2-2.3,22.5-7.9,34.6-18.1L9.9,199.3z"/>
	<path class="st7" d="M-52.1,284.6c0.3,0.5,0.7,0.9,1,1.4c3.9,4.7,9,3.4,10.1,3c0.1,0,0.2-0.1,0.2-0.1l-0.7-0.8
		c-11.9-15.1-18.5-34.4-18.5-54.5c0-44.3,31.5-80.5,71.1-82.9c-1.3-0.1-2.7-0.1-4.1-0.1c-41.4,0-75.1,37.2-75.1,83
		c0,18.3,5.5,36.1,15.5,50.5C-52.3,284.3-52.2,284.5-52.1,284.6z"/>
</g>
</svg>
