<?xml version="1.0" encoding="utf-8"?>
<!-- Generator: Adobe Illustrator 19.0.0, SVG Export Plug-In . SVG Version: 6.00 Build 0)  -->
<svg version="1.0" id="Capa_1" xmlns="http://www.w3.org/2000/svg" xmlns:xlink="http://www.w3.org/1999/xlink" x="0px" y="0px"
	 viewBox="-235 37.8 487.2 487.2" style="enable-background:new -235 37.8 487.2 487.2;" xml:space="preserve">
<style type="text/css">
	.st0{fill:#F9F9F9;stroke:#428DFF;stroke-width:20;stroke-miterlimit:10;}
</style>
<g>
	<g>
		<path class="st0" d="M-179.7,241.4c15.7,0,29.8-9.4,35.9-23.9C-118.8,158-60,115.9,8.6,115.9c37.8,0,72.4,13,100.2,34.4l-21.8,3.4
			c-7.4,1.2-13.2,7.1-14.2,14.5c-1,7.5,3,14.7,9.9,17.8l119.7,53.9c5.2,2.4,11.3,1.9,16.2-1.2c4.8-3.1,7.8-8.5,7.8-14.2L227,92.6
			c0-7.5-4.9-14.1-12-16.3c-7.2-2.2-14.9,0.6-19.1,6.8l-16.5,24.8C135.4,64.5,75.1,37.8,8.6,37.8c-100.8,0-187.5,61.6-224.4,149.1
			c-5.1,12.1-3.8,26,3.4,37C-205.1,234.8-192.8,241.4-179.7,241.4z"/>
		<path class="st0" d="M229.6,339c-7.3-11-19.6-17.6-32.7-17.6c-15.7,0-29.8,9.4-35.9,23.9C136,404.8,77.2,446.8,8.6,446.8
			c-37.8,0-72.4-13-100.2-34.4l21.8-3.4c7.4-1.2,13.2-7.1,14.2-14.5c1-7.5-3-14.7-9.9-17.8l-119.7-53.9c-5.3-2.4-11.3-1.9-16.2,1.2
			c-4.8,3.1-7.8,8.5-7.8,14.2l-0.6,131.9c0,7.5,4.9,14.1,12,16.3c7.2,2.2,14.9-0.6,19.1-6.8l16.5-24.8
			c44,43.3,104.3,70.1,170.8,70.1c100.8,0,187.5-61.6,224.4-149.1C238.2,363.8,236.9,349.9,229.6,339z"/>
	</g>
</g>
</svg>
